<svg width="13" height="15" viewBox="0 0 13 15" fill="none" xmlns="http://www.w3.org/2000/svg">
<path fill-rule="evenodd" clip-rule="evenodd" d="M7.71884 5.50064C8.16116 5.28008 8.72398 4.95542 9.28747 4.51059C9.40628 4.75732 9.41929 4.97262 9.35808 5.14648C9.3147 5.269 9.23295 5.37556 9.12547 5.46035C9.00907 5.55197 8.8637 5.61868 8.70301 5.65473C8.39811 5.72341 8.04211 5.68331 7.71884 5.50064ZM7.79553 7.76048L8.38104 8.09869C7.18553 8.76874 6.86052 10.0129 6.47445 11.2248C6.08843 10.0129 5.76338 8.76874 4.56791 8.09869L5.15343 7.76048C5.21007 7.73907 5.25848 7.70029 5.29173 7.64968C5.32498 7.59907 5.34135 7.53924 5.33851 7.47876C5.28486 6.34383 5.59131 5.84193 6.00466 5.52681C6.15292 5.41393 6.31477 5.35725 6.47445 5.35725C6.63414 5.35725 6.79599 5.41393 6.94429 5.52681C7.35764 5.84193 7.66409 6.34383 7.61045 7.47876C7.6076 7.53924 7.62398 7.59907 7.65723 7.64968C7.69047 7.70029 7.73889 7.73907 7.79553 7.76048ZM6.47445 0.349854C7.15126 0.368024 7.82975 0.499414 8.41859 0.755011C8.82635 0.932237 9.20683 1.16634 9.55135 1.44627C9.70694 1.57265 9.83505 1.69474 9.97617 1.83528C10.3568 1.84844 10.9131 1.4256 11.1713 1.02994C10.7269 2.48698 8.69877 4.20762 7.2947 4.86601C7.29412 4.86577 7.29373 4.86543 7.2933 4.86514C7.04132 4.67273 6.75791 4.57653 6.47445 4.57653C6.191 4.57653 5.90764 4.67273 5.65566 4.86514C5.65522 4.86538 5.65484 4.86582 5.65426 4.86601C4.25014 4.20762 2.22209 2.48698 1.77765 1.02994C2.03585 1.4256 2.59211 1.84844 2.97273 1.83528C3.11391 1.69479 3.24202 1.57265 3.39755 1.44627C3.74208 1.16634 4.12256 0.932237 4.53032 0.755011C5.11921 0.499414 5.7977 0.368024 6.47445 0.349854ZM5.23006 5.50064C4.78779 5.28008 4.22493 4.95542 3.66149 4.51059C3.54268 4.75732 3.52967 4.97262 3.59083 5.14648C3.63426 5.269 3.716 5.37556 3.82344 5.46035C3.93988 5.55197 4.08525 5.61868 4.24595 5.65473C4.55085 5.72341 4.9068 5.68331 5.23006 5.50064Z" fill="#FAFAFC"/>
<path fill-rule="evenodd" clip-rule="evenodd" d="M9.9027 3.96557C10.2129 3.65252 10.4862 3.30602 10.706 2.99683L10.8177 3.20692C11.177 3.9259 11.3637 4.64199 11.3637 5.44787L11.363 6.72667L11.3697 7.38959C11.3957 9.01707 11.7479 10.6637 12.5456 12.1706L10.8766 10.8248L9.69569 12.7411L8.45506 11.5732L6.47255 14.7904L4.49005 11.5732L3.24947 12.7411L2.06856 10.8248L0.399536 12.1706C1.19722 10.6637 1.54936 9.01712 1.57544 7.38964L1.58218 6.72672L1.58141 5.44792C1.58141 4.64199 1.76809 3.9259 2.12755 3.20697L2.23913 2.99687C2.45892 3.30607 2.7322 3.65252 3.04246 3.96562L2.94558 4.16685C2.75736 4.55769 2.69504 4.9947 2.84166 5.41032C2.93618 5.67802 3.10868 5.90759 3.33107 6.08284C3.547 6.25302 3.80255 6.36774 4.0701 6.42799C4.24438 6.46722 4.42195 6.48337 4.59835 6.47787C4.55719 6.7112 4.53921 6.9532 4.53806 7.19979L2.9637 8.1091L4.17859 8.7901C4.27569 8.84454 4.36813 8.90691 4.45496 8.97658C5.45658 9.87587 6.05877 12.5363 6.4726 13.8358C6.88648 12.5363 7.48863 9.87587 8.49029 8.97658C8.57711 8.9069 8.66955 8.84453 8.76666 8.7901L9.98155 8.1091L8.40715 7.19979C8.40599 6.9532 8.38801 6.7112 8.34685 6.47787C8.52326 6.48337 8.70082 6.46722 8.87511 6.42799C9.14266 6.36774 9.39825 6.25302 9.61414 6.08284C9.83648 5.90759 10.009 5.67802 10.1035 5.41032C10.2502 4.9947 10.1878 4.55774 9.99963 4.16685L9.90275 3.96562L9.9027 3.96557Z" fill="#FAFAFC"/>
</svg>
